<svg width="1179" height="513" viewBox="0 0 1179 513" fill="none" xmlns="http://www.w3.org/2000/svg">
<g id="Ornamen">
<rect id="Rectangle 19" x="6.56449" y="339.612" width="23" height="23" transform="rotate(15 6.56449 339.612)" stroke="white" stroke-opacity="0.2"/>
<rect id="Rectangle 25" x="97.5645" y="19.6124" width="23" height="23" transform="rotate(15 97.5645 19.6124)" stroke="white" stroke-opacity="0.2"/>
<rect id="Rectangle 27" x="834.565" y="340.612" width="23" height="23" transform="rotate(15 834.565 340.612)" stroke="white" stroke-opacity="0.2"/>
<rect id="Rectangle 23" x="1063.56" y="158.612" width="23" height="23" transform="rotate(15 1063.56 158.612)" stroke="white" stroke-opacity="0.2"/>
<rect id="Rectangle 24" x="1161.97" y="58.7071" width="23" height="23" transform="rotate(45 1161.97 58.7071)" stroke="white" stroke-opacity="0.2"/>
<rect id="Rectangle 20" x="83.9702" y="478.707" width="23" height="23" transform="rotate(45 83.9702 478.707)" stroke="white" stroke-opacity="0.2"/>
<rect id="Rectangle 26" x="174.97" y="158.707" width="23" height="23" transform="rotate(45 174.97 158.707)" stroke="white" stroke-opacity="0.2"/>
<rect id="Rectangle 28" x="911.971" y="479.707" width="23" height="23" transform="rotate(45 911.971 479.707)" stroke="white" stroke-opacity="0.2"/>
<rect id="Rectangle 21" x="279.707" y="435.485" width="11" height="11" transform="rotate(-45 279.707 435.485)" stroke="white" stroke-opacity="0.2"/>
<rect id="Rectangle 22" x="993.707" y="8.48528" width="11" height="11" transform="rotate(-45 993.707 8.48528)" stroke="white" stroke-opacity="0.2"/>
<rect id="Rectangle 29" x="943.707" y="223.485" width="11" height="11" transform="rotate(-45 943.707 223.485)" stroke="white" stroke-opacity="0.2"/>
</g>
</svg>
